<svg version="1" xmlns="http://www.w3.org/2000/svg" width="462.667" height="462.667" viewBox="0 0 347.000000 347.000000"><path d="M317.5 19.5c-2.2 1.3-4.6 2.8-5.2 3.4-.7.6-2.6 1.4-4.3 1.7-1.6.4-3 1-3 1.4 0 .4-2.4 1.9-5.2 3.5-2.9 1.5-6.4 3.6-7.8 4.5-1.4 1-2.7 1.8-3 1.8-.3 0-2.2.7-4.4 1.6-2.1.9-4.4 1.6-5 1.6-.6 0-3.1.7-5.5 1.6-2.4.8-6 1.7-8 1.9-2 .2-5.4.9-7.6 1.4-5.4 1.4-21.7 3.6-23 3.2-.5-.2-1.6-.3-2.2-.2-.7 0-1.9.2-2.5.2-.7.1-4.2-.1-7.8-.4-3.6-.4-10.3-.9-15-1.3-4.7-.4-9.3-1.1-10.3-1.6s-4.3-.9-7.5-.8c-20.2.3-27.9.7-29.7 1.7-2.6 1.3-15.3 3.5-16.5 2.8-.5-.3-1.1-.1-1.4.3-.3.5-2 .9-3.8 1-1.8.1-5.3.6-7.8 1.1-15.6 3.2-20.6 4.1-24.3 4.1-2.3 0-5.1.7-6.1 1.5s-2.3 1.2-2.7.9c-1.6-.9-18 3.9-27.9 8.3C60.4 69 40.3 79.4 38.5 81c-1.1 1-4 2.6-6.5 3.6s-6.1 3.1-8 4.8c-1.9 1.7-4.5 3.8-5.7 4.7-1.6 1.1-2.3 2.7-2.5 6l-.3 4.4 4.5.3c11.1.7 18.4 1.9 18.8 3 .2.7 1.7 1.2 3.3 1.2 2.2 0 2.9-.5 2.9-1.9 0-1.9 7.9-9.1 9.9-9.1.7 0 1.4-.7 1.8-1.5.3-.9 2.4-2.5 4.7-3.7 2.2-1.1 6.2-3.6 8.7-5.4 2.6-1.9 9.1-5.2 14.5-7.4 5.5-2.2 10.7-4.5 11.6-5 1-.6 2.8-1 4-1 2 0 6.8-1.3 11.3-3.1 12-4.7 39.7-7.6 44.5-4.7 1.6 1.1 2.2.9 3.4-.7 1.2-1.6 1.5-1.7 2-.5 2 6.3 2.6 9.8 3.2 19 .3 5.8.8 10.8 1 11.1.2.4-.1 4.2-.6 8.4-.5 4.3-.7 8.8-.4 10.1.6 2.2 1 2.3 9 2.2 4.6-.1 8.7.2 9.1.6.8.8.7 59.8-.2 77.6-2.3 47-2.1 124.6.2 128.4.3.5.5 4.9.4 9.7l-.1 8.9h34l.1-10.3c.1-5.6.1-36.5 0-68.7s-.1-71.1-.2-86.5c0-15.4-.3-33-.7-39-.4-6.1-.5-13.8-.4-17.3.3-5.4.7-6.3 2.5-6.7 4.4-.9 13.1-1.2 17.1-.4 2.2.4 4.8.3 5.8-.2 1.1-.6 3.9-.4 7.8.5 3.3.8 6.4 1.5 6.8 1.5.4.1 2.1.3 3.7.6 1.7.2 7.6.7 13.3 1 11.8.7 18.7 1.9 33.2 5.9 3 .9 7.2 2.5 9.2 3.6 2 1.1 5.4 2.1 7.5 2.3l3.8.2.1-4.3c.1-2.4.7-5.6 1.3-7 1-2.8 1.8-8.6 2.7-20.5.2-3.7.9-7.9 1.4-9.3 1.6-4.1.7-44.4-1-47.4-.8-1.4-1.3-2.8-1.2-3.3.8-2.8-5.2-17.8-7.3-18.3-.6-.1-2.8.8-5 2.1zm4.9 12.6c.3 1.7 1.3 4.5 2.1 6.3 1.3 2.7 1.5 7.1 1.1 27.7-.5 26-2.1 43.2-5 51.6l-.8 2.2-3.6-2.1c-2.1-1.2-5.2-2-6.9-1.9-2.7.1-3.3-.2-3.3-1.9 0-2.5 1.8-10.7 3-13.5 2.9-7 4.8-35.8 3.7-56.3-.3-4.3 0-6.5 1-7.3 1.5-1.3 1.8-3.9.3-3.9-1.9 0-1-2.1 1.3-3 4.4-1.8 6.4-1.2 7.1 2.1z"/></svg>