<?xml version="1.0" standalone="no"?>
<!DOCTYPE svg PUBLIC "-//W3C//DTD SVG 20010904//EN"
 "http://www.w3.org/TR/2001/REC-SVG-20010904/DTD/svg10.dtd">
<svg version="1.0" xmlns="http://www.w3.org/2000/svg"
 width="591.000000pt" height="591.000000pt" viewBox="0 0 591.000000 591.000000"
 preserveAspectRatio="xMidYMid meet">
<metadata>
Created by potrace 1.11, written by Peter Selinger 2001-2013
</metadata>
<g transform="translate(0.000000,591.000000) scale(0.100000,-0.100000)"
fill="#000000" stroke="none">
<path d="M650 5740 c-136 -14 -250 -75 -325 -176 -53 -69 -81 -138 -95 -232
-7 -45 -10 -832 -8 -2402 l3 -2335 23 -59 c32 -86 63 -134 123 -193 60 -59
165 -115 247 -132 71 -15 4625 -16 4703 -1 193 36 369 216 399 410 14 91 14
4631 -1 4720 -27 175 -155 323 -329 383 l-65 22 -2300 1 c-1265 1 -2334 -2
-2375 -6z m795 -226 c28 -9 59 -19 70 -24 11 -4 63 -25 115 -46 96 -39 293
-136 319 -157 8 -7 15 -10 15 -9 2 7 61 -22 104 -51 23 -15 42 -25 42 -22 0 4
12 -2 28 -13 28 -20 76 -48 150 -89 24 -13 59 -35 76 -48 18 -14 36 -25 40
-25 4 0 27 -13 51 -30 24 -16 47 -30 50 -30 4 0 29 -16 55 -35 26 -19 50 -35
54 -35 3 0 28 -16 55 -35 26 -19 51 -35 55 -35 4 0 31 -18 61 -40 30 -22 57
-40 60 -40 3 0 30 -18 59 -40 29 -22 56 -40 60 -40 4 0 34 -20 66 -45 32 -25
61 -45 65 -45 4 0 33 -20 65 -45 32 -25 62 -45 65 -45 20 0 141 -110 208 -188
101 -119 802 -787 839 -801 5 -2 28 -23 50 -47 22 -24 44 -42 48 -39 4 3 26
-15 49 -40 23 -25 44 -45 47 -45 2 0 81 -67 173 -150 93 -82 172 -150 175
-150 4 0 76 -61 161 -135 85 -74 158 -135 164 -135 5 0 19 -12 31 -27 12 -16
25 -28 29 -28 4 0 55 -42 113 -93 59 -50 109 -92 113 -92 15 0 95 -95 95 -113
0 -28 -68 -195 -96 -237 -13 -19 -24 -38 -24 -43 0 -5 -13 -28 -30 -52 -16
-24 -30 -47 -30 -50 0 -4 -20 -33 -45 -65 -25 -32 -45 -62 -45 -66 0 -19 -284
-324 -302 -324 -5 0 -35 -22 -67 -50 -32 -27 -61 -50 -65 -50 -5 0 -26 -14
-47 -31 -21 -17 -39 -28 -39 -24 0 4 -16 -5 -35 -19 -19 -15 -35 -24 -35 -20
0 3 -6 2 -12 -4 -22 -18 -101 -57 -163 -81 -33 -12 -72 -29 -87 -37 -16 -9
-28 -12 -28 -9 0 3 -8 1 -17 -4 -10 -5 -31 -11 -48 -14 -16 -3 -55 -13 -85
-22 -87 -24 -158 -28 -186 -10 -38 25 -46 52 -45 151 3 170 -57 408 -148 590
-23 45 -41 85 -41 89 0 5 -10 22 -23 39 -12 17 -28 42 -35 56 -14 30 -29 54
-59 97 -13 17 -23 35 -23 40 0 4 -17 28 -38 52 l-39 45 -30 -22 c-17 -12 -34
-22 -38 -22 -3 0 -21 -10 -38 -23 -18 -12 -39 -27 -48 -32 -50 -30 -128 -87
-144 -105 -10 -11 -23 -20 -28 -20 -5 0 -38 -25 -73 -56 -35 -31 -64 -53 -64
-49 0 6 -97 -75 -224 -187 -26 -24 -51 -43 -55 -43 -8 0 -207 -175 -311 -272
-42 -40 -81 -73 -86 -73 -5 0 -43 -34 -84 -75 -41 -41 -79 -75 -85 -75 -6 0
-55 -45 -109 -99 -55 -55 -102 -98 -106 -96 -3 2 -64 -54 -136 -126 -71 -71
-133 -129 -138 -129 -6 0 -85 -73 -176 -162 -92 -90 -203 -196 -247 -236 l-81
-72 -216 0 c-118 0 -239 5 -268 11 -112 23 -255 114 -279 177 -10 25 -7 30 35
69 25 23 46 46 46 51 0 6 45 52 100 103 55 52 100 99 100 105 0 7 41 49 90 94
50 45 90 87 90 94 0 6 41 49 90 94 50 46 90 88 90 94 0 6 38 47 85 90 47 44
85 84 85 89 0 5 36 43 80 85 44 42 80 81 80 86 0 5 25 32 55 60 30 27 55 56
55 63 0 7 19 30 43 50 23 21 49 48 57 60 8 13 81 97 163 188 81 91 147 170
147 176 0 6 14 20 30 33 17 12 30 26 30 31 0 5 34 48 75 97 41 49 75 91 75 94
0 3 36 50 80 104 44 54 80 102 80 106 0 4 25 38 55 75 30 38 55 71 55 75 0 4
20 34 45 66 25 32 45 61 45 65 0 3 18 30 40 60 22 30 40 57 40 61 0 3 8 18 19
32 10 15 30 47 44 73 l25 45 -59 48 c-77 62 -105 101 -114 153 -10 60 1 96 46
153 21 27 39 54 39 59 0 5 7 11 15 15 8 3 15 11 15 17 0 6 22 39 50 74 27 35
50 66 50 70 0 4 23 35 50 70 28 35 50 66 50 70 0 4 22 35 49 69 l48 62 -63 57
c-34 31 -67 57 -73 57 -5 0 -23 16 -38 35 -15 19 -32 35 -36 35 -5 0 -46 32
-91 70 -46 39 -87 70 -91 70 -3 0 -40 27 -81 61 -41 33 -74 58 -74 55 0 -4
-40 25 -90 64 -49 38 -92 70 -95 70 -3 0 -30 18 -59 40 -29 22 -56 40 -60 40
-4 0 -34 20 -66 45 -32 25 -61 45 -65 45 -3 0 -30 18 -60 40 -30 22 -57 40
-61 40 -3 0 -28 16 -54 35 -26 19 -51 35 -54 35 -4 0 -31 18 -61 40 -30 22
-57 40 -60 40 -4 0 -27 15 -53 32 -26 18 -49 33 -52 33 -3 0 -28 17 -57 38
-28 20 -54 37 -58 37 -3 0 -25 13 -48 28 -23 15 -54 34 -69 41 -15 8 -42 29
-60 48 -30 31 -33 40 -33 93 0 68 17 93 73 108 41 11 72 8 147 -14z"/>
</g>
</svg>
